<?xml version="1.0" encoding="UTF-8"?>
<!DOCTYPE svg PUBLIC "-//W3C//DTD SVG 1.1//EN" "http://www.w3.org/Graphics/SVG/1.1/DTD/svg11.dtd">
<!-- Creator: CorelDRAW X8 -->
<svg xmlns="http://www.w3.org/2000/svg" xml:space="preserve" width="1675px" height="792px" version="1.1" style="shape-rendering:geometricPrecision; text-rendering:geometricPrecision; image-rendering:optimizeQuality; fill-rule:evenodd; clip-rule:evenodd"
viewBox="0 0 1675 792"
 xmlns:xlink="http://www.w3.org/1999/xlink">
 <defs>
  <style type="text/css">
   <![CDATA[
    .fil0 {fill:black;fill-rule:nonzero}
   ]]>
  </style>
 </defs>
 <g id="Layer_x0020_1">
  <metadata id="CorelCorpID_0Corel-Layer"/>
  <path class="fil0" d="M242 48c-2,3 -3,5 -3,7 0,3 3,5 4,7 1,-3 3,-5 3,-7 -1,-3 -4,-6 -4,-7zm43 0c2,3 3,5 3,7 0,3 -3,5 -4,7 -1,-3 -3,-5 -3,-7 0,-3 3,-6 4,-7zm-68 -2c1,0 3,-1 3,-3 0,-2 -2,-3 -3,-3 -2,0 -3,1 -3,3 0,2 1,3 3,3zm2 4c0,-2 -2,-3 -3,-3 -2,0 -3,1 -3,3 0,2 1,3 3,3 1,0 3,-1 3,-3zm1 7c0,-2 -1,-3 -3,-3 -1,0 -3,1 -3,3 0,2 2,3 3,3 2,0 3,-1 3,-3zm13 -25c2,0 3,-1 3,-3 0,-2 -1,-3 -3,-3 -2,0 -3,1 -3,3 0,2 1,3 3,3zm-7 2c1,0 3,-1 3,-3 0,-1 -2,-3 -3,-3 -2,0 -3,2 -3,3 0,2 1,3 3,3zm-6 5c2,0 3,-1 3,-3 0,-1 -1,-3 -3,-3 -2,0 -3,2 -3,3 0,2 1,3 3,3zm21 -6c1,0 2,-2 2,-3 0,-2 -1,-3 -2,-3 -2,0 -3,1 -3,3 0,1 1,3 3,3zm7 2c1,0 3,-2 3,-3 0,-2 -2,-3 -3,-3 -2,0 -3,1 -3,3 0,1 1,3 3,3zm7 3c1,0 3,-1 3,-3 0,-2 -2,-3 -3,-3 -2,0 -3,1 -3,3 0,2 1,3 3,3zm52 5c0,2 1,3 3,3 1,0 3,-1 3,-3 0,-2 -2,-3 -3,-3 -2,0 -3,1 -3,3zm4 4c-2,0 -3,1 -3,3 0,2 1,3 3,3 1,0 3,-1 3,-3 0,-2 -2,-3 -3,-3zm-2 7c-1,0 -3,1 -3,3 0,2 2,3 3,3 2,0 3,-1 3,-3 0,-2 -1,-3 -3,-3zm-16 -22c2,0 3,-1 3,-3 0,-2 -1,-3 -3,-3 -1,0 -2,1 -2,3 0,2 1,3 2,3zm8 2c1,0 3,-1 3,-3 0,-1 -2,-3 -3,-3 -2,0 -3,2 -3,3 0,2 1,3 3,3zm5 5c2,0 3,-1 3,-3 0,-1 -1,-3 -3,-3 -1,0 -2,2 -2,3 0,2 1,3 2,3zm-20 -6c1,0 3,-2 3,-3 0,-2 -2,-3 -3,-3 -2,0 -3,1 -3,3 0,1 1,3 3,3zm-7 2c1,0 3,-2 3,-3 0,-2 -2,-3 -3,-3 -2,0 -3,1 -3,3 0,1 1,3 3,3zm-10 0c0,2 1,3 3,3 1,0 3,-1 3,-3 0,-2 -2,-3 -3,-3 -2,0 -3,1 -3,3zm-11 16l3 0 0 -13c-1,0 -2,0 -3,-1l0 14zm10 -14c-1,1 -2,1 -3,1l0 13 3 0 0 -14zm-7 -14l0 -7c-3,1 -6,4 -7,7l7 0zm4 0l7 0c0,-3 -3,-6 -7,-7l0 7zm-11 4c1,4 5,7 9,7 5,0 8,-3 9,-7l-18 0zm14 -12c-2,-2 -3,-4 -4,-7 3,1 5,3 7,5l0 -10c-2,2 -4,3 -7,4 1,-3 2,-5 4,-7l-10 0c2,2 4,4 4,7 -2,-1 -5,-2 -6,-4l0 10c1,-2 4,-4 6,-5 0,3 -2,5 -4,7l10 0zm11 200c-9,-2 -20,-6 -30,-10l0 -1c0,-2 -1,-4 -2,-6 -2,-2 -4,-3 -6,-3 -1,0 -2,1 -3,1 -2,-1 -3,-3 -4,-4 -4,-5 -7,-10 -9,-16 -1,-3 -2,-7 -3,-10 0,3 -4,6 -10,7 1,-1 1,-3 0,-3 -2,2 -4,4 -9,2 1,4 2,8 3,12 3,8 8,16 14,22 1,2 3,4 5,6 0,0 0,1 0,1 0,2 2,6 5,7 3,1 6,1 8,-1 4,3 10,5 16,7 7,1 14,3 19,3 4,0 10,-3 16,-6 3,-2 5,-3 6,-5 1,0 1,0 1,0 -5,0 -11,-1 -17,-3zm-34 -13l-1 -1c-1,-1 -3,-1 -5,0 0,1 -1,1 -2,2l-1 1 1 1c2,1 2,3 2,4 -1,0 -1,1 -1,1 -1,0 -3,0 -4,-1l-1 -1 0 1c0,0 0,0 0,1 -1,0 -1,0 -1,0 -1,2 -1,3 -1,4 0,0 0,0 0,0 0,1 1,2 2,2l0 1c1,0 2,1 3,1 -1,1 -3,1 -5,1 -2,-2 -4,-5 -4,-6 0,-2 1,-5 3,-8l0 0 0 -1c-1,0 -1,-1 -1,-2 1,0 1,0 2,0l1 1 0 -1c1,-1 5,-5 9,-5 1,0 3,1 4,2 1,1 2,3 2,4 -1,0 -1,-1 -2,-1zm6 17c-2,0 -4,-2 -4,-4 0,-2 2,-4 4,-4 2,0 4,2 4,4 0,2 -2,4 -4,4zm17 5c-1,0 -3,-1 -3,-3 0,-2 2,-4 3,-4 2,0 4,2 4,4 0,2 -2,3 -4,3zm5 19c0,0 -1,0 -2,0l0 -11c-4,0 -10,-1 -16,-3l0 14c0,0 -1,0 -2,0 -3,0 -6,3 -6,6 0,3 2,5 3,7 1,-2 2,-3 3,-3 1,0 1,9 6,10 0,0 0,1 0,1 0,3 2,5 4,5 3,0 5,-2 5,-5 0,0 0,-1 -1,-1 6,-1 5,-10 7,-10 1,0 2,1 2,3 2,-2 3,-4 3,-7 0,-3 -2,-6 -6,-6zm-10 24c-1,0 -2,-2 -2,-3 0,-1 1,-2 2,-2 2,0 3,1 3,2 0,1 -1,3 -3,3zm13 -14c0,-2 -1,-2 -2,-2 -4,0 -2,10 -7,10 -2,0 -3,-2 -3,-3 0,-1 1,-2 1,-3 0,-1 -1,-1 -2,-1 -1,0 -2,0 -2,1 0,1 1,2 1,3 0,1 -1,3 -3,3 -4,0 -3,-10 -6,-10 -1,0 -2,0 -3,2 -1,-2 -1,-3 -1,-4 0,-2 1,-4 4,-4 5,0 4,6 7,6 1,0 1,0 1,-1 0,-2 -3,-4 -3,-7 0,-3 3,-5 5,-7 3,2 6,4 6,7 0,3 -4,5 -4,7 0,1 1,1 2,1 2,0 1,-6 6,-6 3,0 5,2 5,4 0,1 -1,2 -2,4zm126 3c0,-1 0,-1 -1,-1 -13,4 -29,-7 -44,-17 -13,-9 -26,-17 -36,-17 -4,0 -8,1 -11,3 -3,2 -6,5 -8,9 -1,4 -3,7 -5,10 -2,2 -3,4 -3,7 0,2 1,4 3,6 1,1 3,3 7,4 0,1 1,1 1,1 3,2 5,2 5,4 -5,2 -12,4 -19,5 -9,2 -18,3 -28,3 -10,0 -19,-1 -27,-3 -8,-1 -14,-3 -19,-5 0,-2 1,-3 4,-4 1,-1 1,-1 2,-1 3,-2 5,-3 7,-5 2,-1 2,-3 2,-5 0,-3 -1,-5 -3,-7 -1,-3 -3,-6 -5,-10 -2,-4 -4,-7 -8,-9 -3,-2 -6,-3 -10,-3 -11,0 -23,8 -36,17 -16,10 -32,21 -44,17 -1,0 -2,0 -2,1 0,0 0,1 1,1 4,2 7,5 11,7 4,4 9,7 13,7 5,0 10,-1 16,-4 5,-3 10,-7 16,-10 10,-7 20,-14 30,-15 -1,1 -2,2 -3,3 -3,2 -5,5 -5,9 0,4 1,7 3,10 0,1 1,2 1,4 2,2 2,4 3,7 0,1 0,2 1,4 0,2 1,7 9,10 8,5 23,7 43,7 21,0 35,-2 44,-7 7,-3 8,-8 9,-10 0,-2 1,-3 1,-4 1,-3 1,-5 2,-7 1,-2 2,-4 2,-5 2,-3 3,-5 3,-8 0,-5 -3,-7 -6,-10 -1,-1 -2,-2 -3,-3 10,1 21,8 31,15 5,3 11,7 16,10 6,3 11,4 15,4 5,0 9,-3 14,-7 3,-2 7,-5 11,-7 0,0 1,-1 0,-1zm-77 -103c-1,-1 -4,-3 -5,-6 -1,-3 -8,-16 -9,-17 -1,-2 -1,-3 -1,-4 0,-1 1,-3 1,-4 1,0 2,-1 3,-2 0,-1 0,-1 1,-2 -3,-4 -5,-7 -8,-10 -4,-5 -8,-8 -12,-11 2,-2 4,-4 4,-8 0,-2 0,-4 -2,-5 2,-9 7,-18 11,-23l-8 -3c2,3 2,7 2,9 -3,-2 -4,-4 -5,-6 0,2 -2,6 -3,9 2,-1 4,-2 7,-1 -2,2 -5,5 -11,4 -3,-1 -6,-3 -5,-5 0,-1 1,-3 2,-3 2,0 2,3 2,4 2,-1 5,-8 1,-9 -3,-1 -6,3 -7,6 0,-3 -2,-7 -5,-7 -3,1 -2,8 -1,9 0,-2 2,-3 3,-3 1,0 2,0 2,3 0,2 -3,3 -7,3 -4,0 -10,-1 -10,-8 2,1 5,3 7,5 0,-4 0,-7 0,-11 -2,2 -5,4 -7,4 0,-3 3,-6 6,-8l-15 0c3,2 5,5 6,8 -2,0 -6,-2 -7,-4 0,4 0,7 0,11 1,-2 5,-4 7,-4 -1,6 -7,7 -10,7 -4,0 -7,-1 -7,-3 -1,-3 1,-3 2,-3 1,0 2,1 2,3 2,-1 3,-8 -1,-9 -3,0 -4,4 -5,7 -1,-3 -3,-7 -6,-6 -4,1 -2,8 1,9 -1,-1 -1,-4 1,-4 2,0 3,2 3,3 0,2 -3,4 -6,5 -5,1 -9,-2 -10,-4 2,-1 4,0 7,1 -2,-3 -3,-7 -3,-9 -1,2 -3,5 -5,6 -1,-2 0,-6 2,-9l-9 3c4,5 9,14 12,23 -2,1 -3,3 -3,5 0,4 3,6 5,8 -4,3 -9,6 -12,11 -6,6 -11,13 -14,22 2,1 6,6 8,8 2,2 3,5 3,7 0,4 1,5 3,8 1,0 1,3 2,5l41 0 0 45c-2,0 -4,0 -5,2 5,2 9,4 14,5 0,-3 1,-4 2,-6 0,0 -6,-1 -9,-1l0 -45 40 0c0,6 -1,12 -3,18 -2,6 -5,11 -9,16 -4,4 -8,8 -13,10 -1,1 -1,1 -2,1 -1,1 -1,3 -2,4 -1,1 -1,2 -1,4 2,1 3,1 5,1 14,4 17,3 18,2l0 0c3,-2 6,-5 9,-8 6,-6 10,-14 13,-22 3,-9 5,-18 5,-27 0,-2 0,-3 0,-4zm-62 3l-42 0c1,-7 2,-13 4,-19 2,-5 5,-11 9,-15 4,-5 8,-8 13,-11 5,-2 10,-3 16,-4l0 49zm0 -69c-13,0 -23,4 -28,8 -4,-2 -5,-4 -5,-6 0,-8 22,-8 33,-8l0 0c11,0 33,0 33,8 0,2 -1,4 -4,6 -6,-4 -15,-8 -29,-8zm2 69l0 -48c5,0 10,1 15,3 5,3 9,6 13,11 4,4 7,10 9,15 2,6 3,12 3,19l-40 0zm34 -8c0,0 0,2 -1,1 0,-7 -3,-14 -7,-20 0,0 0,0 0,0 1,0 1,-1 1,-2 -1,0 -2,0 -2,1 0,0 -1,-1 -1,-1 -3,-3 -5,-6 -9,-8 -3,-2 -6,-4 -9,-5 0,-1 1,-1 1,0 0,-1 -1,-2 -2,-2 0,0 0,1 0,1 -1,0 -1,-1 -2,-1 0,1 0,2 1,2 -1,0 -1,1 -2,1 0,0 1,2 2,2 -1,-1 -1,-2 0,-2l0 16c-1,0 -1,0 -2,1 1,1 1,1 2,0l0 17c-1,0 -1,-1 0,-1 -1,0 -2,1 -2,2 1,0 1,0 2,0 -1,1 -1,1 -1,2 1,0 1,0 2,-1 0,1 0,2 0,2 1,0 2,-1 2,-2 0,1 -1,1 -1,0l12 0c-1,1 -1,2 0,2 1,0 1,-1 1,-2l13 0c0,1 -1,1 -1,0 0,2 1,2 1,2 1,0 1,-1 1,-2 0,1 1,1 2,1 0,-1 -1,-1 -1,-2 1,0 1,0 1,0 1,-1 0,-2 -1,-2zm-12 -21c0,0 0,1 0,1 0,1 1,1 1,1 0,0 -1,1 -1,2 1,0 2,0 2,-1 0,1 0,1 1,2 0,0 0,0 1,0 3,5 5,10 6,16 -1,0 -1,0 -2,0 0,0 1,1 1,1l-10 0c0,0 0,-1 -1,-1 0,0 -1,0 -1,1 0,-1 0,-2 -1,-2 0,0 -1,1 -1,2 0,-1 -1,-1 -1,-1 0,0 -1,1 -1,1l-8 0c0,0 0,-1 0,-1 0,0 -1,0 -1,0l0 -14c0,1 1,0 1,0 0,-1 0,-1 0,-2 0,0 1,0 1,0 0,-1 -1,-1 -1,-1 0,-1 0,-1 0,-1 0,-1 -1,-1 -1,-1l0 -12c0,0 1,1 1,1 0,-1 0,-2 0,-2 2,1 5,2 8,4 2,2 5,4 7,7zm5 17c0,-1 1,-1 1,-1 -1,0 -1,0 -1,-1 0,0 1,0 0,0 0,-1 -1,-1 -1,0 -1,0 -4,-1 -4,-3 0,0 1,1 1,1 0,0 1,0 1,0 0,0 0,0 0,0 0,0 1,0 1,0 0,0 0,0 0,0l0 0c1,0 1,0 1,-1 1,-1 -1,-2 -2,-3 -1,-1 -1,-1 -1,-1 -1,-1 -1,-2 -2,-4 0,0 0,-1 0,-1 -1,1 -1,3 1,5 1,1 4,3 4,4 0,0 -1,0 -1,0 0,0 0,0 0,0 -1,0 -1,0 -1,0 0,0 0,0 0,0 -1,0 -1,0 -1,-1 -1,-1 -3,-2 -3,-3 -2,-2 -1,-4 -1,-5 1,-1 0,-4 -1,-5 0,0 0,0 0,-1 0,0 -1,0 -1,0 0,0 0,0 -1,-1 0,0 0,0 0,0 -1,0 -1,0 -1,0 -1,0 -1,0 -1,1 0,0 0,0 -1,0 -1,0 -1,0 0,1 0,0 0,0 0,0 0,0 0,0 0,1l1 0 0 -1c0,0 1,0 1,1 0,0 0,0 0,0 -1,0 -1,0 -2,0 0,0 0,1 0,1 0,0 1,0 1,0 1,0 2,0 2,1 0,1 -2,1 -2,3 -1,-1 -1,-1 -1,-1 0,-1 -1,-1 -1,-2 -1,0 -1,-1 -2,-1 0,0 0,0 0,-1 0,-1 0,-1 0,-1 0,-1 0,-1 0,-1 0,0 -1,0 -1,0 0,0 0,0 1,0 -1,0 -1,0 -1,0 0,1 0,1 0,1 0,0 0,0 0,0 0,0 0,0 0,0 0,0 0,0 0,0 0,0 0,-1 0,-1 0,0 -1,0 -1,0 0,0 0,0 0,0 0,0 0,0 0,0 0,0 0,0 0,0 0,0 0,1 0,1 0,0 0,0 0,0 1,0 1,0 1,0 0,0 0,0 0,0 0,0 0,0 0,0 -1,0 -1,0 -1,1 0,0 0,0 0,0 -1,0 -1,0 0,1 0,0 0,-1 0,-1 0,0 0,0 0,0 0,0 0,0 0,0 0,0 0,0 1,0 0,0 0,0 0,0 0,0 0,0 0,0 0,0 0,0 0,0 -1,1 0,1 0,1 0,1 -1,1 -1,0 0,1 0,2 1,1 0,1 0,1 0,1 0,0 0,0 1,0 0,0 0,0 0,0 0,0 0,1 0,1 0,-1 0,-1 0,-1 0,1 0,1 0,1 1,1 2,2 3,3 -1,1 -1,1 -2,2 0,0 -1,1 -1,1 -1,0 -1,-1 -1,-1 0,0 0,0 0,0 0,0 -1,0 -1,0 0,0 0,0 -1,0 1,0 1,0 1,0 0,1 0,1 0,1 0,0 0,0 1,0 0,0 0,0 0,0 0,0 0,0 0,0 -1,0 -1,0 -1,0 0,0 0,0 0,1 0,0 0,0 0,0 -1,0 -1,0 -1,1 0,0 0,-1 1,-1 0,0 0,0 0,0 0,1 0,1 1,0 0,0 0,0 0,0 0,0 0,1 0,1 0,0 0,0 0,0 0,0 0,0 0,0 0,1 1,1 1,1 0,0 0,0 0,-1 0,0 0,0 0,0 0,0 0,-1 0,-1 0,0 0,0 0,0 0,0 1,1 1,1 0,-1 0,-1 0,-1 1,0 2,-1 2,0 0,-1 0,-1 1,-1 1,0 1,0 1,0 0,0 0,-1 1,-1 0,2 3,2 4,4 -1,-1 -2,-1 -3,-1 -1,0 -2,1 -2,2 -1,1 0,2 1,3 -1,0 -1,0 -2,0 0,0 0,0 0,0 -1,0 -1,-1 -2,-1 0,0 0,0 0,0l0 0c-1,0 -1,1 -1,1 0,0 0,0 0,0 0,0 0,0 0,0 0,0 0,0 1,0 0,0 0,0 0,0 0,0 0,0 0,0 0,0 -1,0 -1,1 0,0 0,0 0,0 0,0 1,1 1,1 0,0 0,-1 0,-1 0,0 0,0 0,0 0,0 0,0 0,0 0,0 0,0 0,0 0,0 0,0 0,0 0,0 0,0 0,0 0,0 0,1 0,1 0,0 1,0 1,0 0,0 0,0 0,0 0,0 0,0 0,0 0,0 0,-1 0,-1 0,0 0,0 0,0 0,0 1,0 1,0 0,0 0,0 0,0 0,0 0,1 0,1 1,0 1,-1 1,-1 0,0 0,0 0,1 0,-1 0,-1 1,-1l1 0c0,0 0,0 1,0 0,0 0,0 0,-1 0,-1 -1,-1 -1,-1 0,-1 2,-2 3,-2 0,1 1,3 3,3 1,1 2,0 2,0 0,0 0,0 0,0 0,1 0,1 0,2 0,0 -1,0 -1,0 0,0 -1,0 -1,0 0,0 0,0 0,1 0,-1 0,-1 0,-1 0,0 0,0 0,0 0,1 1,1 1,1 0,0 0,0 0,0 0,0 0,0 0,1 0,0 0,0 0,0 0,0 0,0 1,0 0,0 0,0 0,0 0,0 0,0 0,0 0,0 0,-1 0,-1 1,0 1,0 1,0 -1,0 -1,1 0,1 0,0 0,0 0,0 0,0 0,0 1,0 0,0 -1,0 -1,0 1,0 1,0 1,0 0,-1 -1,-1 -1,-1 0,-1 1,-1 1,-1 0,0 0,0 0,0 0,-1 1,-1 1,-1 -1,0 -1,0 -1,0l0 0zm-34 22l-1 0 0 0c0,-3 -1,-5 -4,-5 -2,0 -6,3 -13,3 -2,0 -6,-1 -8,-2l0 2c0,0 0,0 0,0 0,-1 -1,-2 -2,-2 -1,0 -1,1 -1,2 0,0 0,1 1,1 1,0 1,0 1,0l0 1c0,1 0,1 0,1 0,9 7,21 19,25 2,-1 4,0 4,2 0,1 -1,2 -2,2 -1,0 -1,-1 -1,-1 0,-1 1,-1 1,-1 0,-1 0,-1 -1,-1 -1,0 -2,0 -2,2 0,1 1,2 3,2 1,0 4,0 4,-4 0,0 1,0 1,-1l0 -1 0 -1 0 -21 1 0c0,0 1,-1 1,-1 0,-1 0,-2 -1,-2zm-22 2l15 22c-8,-4 -16,-11 -15,-22zm15 20l-14 -20c1,0 1,0 2,0 0,0 1,0 2,0l11 15c-1,2 -1,3 -1,5zm1 -7l-10 -14c1,0 2,0 3,-1l8 11c0,1 -1,3 -1,4zm2 -15l0 0c-1,0 -2,0 -2,1 0,1 1,1 2,1l0 1c0,0 0,0 0,0 0,1 -1,3 -1,6l-6 -9c3,-1 5,-2 6,-2 1,0 2,0 1,2zm1 -43c3,0 5,-1 5,-2 0,-4 -8,-1 -8,-3 0,-1 0,-1 0,-1l0 0c4,-1 4,-4 7,-4 -3,-1 -4,2 -5,2 1,0 1,-1 1,-1 -1,1 -2,1 -3,2 0,0 0,0 0,0 -1,1 -1,1 -1,1 0,4 8,1 8,4 0,0 -1,1 -4,1 -1,0 -3,-1 -6,0 0,-1 1,-2 1,-2 0,0 0,-1 0,-1 0,0 0,0 0,0 0,0 0,-1 0,-1 0,0 0,0 -1,0 0,0 0,0 0,-1 -1,0 -1,0 -1,0 0,0 0,0 0,0 -1,0 -1,0 -1,0 0,0 0,0 0,0 -1,0 -1,1 0,1 -1,0 -1,1 -1,1 0,0 0,0 0,0 0,0 0,1 -1,1 0,0 0,0 0,0 0,1 0,2 0,2l0 0c0,0 0,0 -1,0 0,-1 0,-1 0,-1 0,-1 0,-1 0,-1 0,-1 0,-1 0,-1 0,0 0,0 0,0 0,0 0,0 0,0 0,0 0,0 0,0 0,0 0,1 0,1 0,0 0,0 0,0 0,0 0,0 0,0 0,0 0,0 0,0 -1,0 -1,-1 -1,-1 0,0 0,0 0,0 0,0 0,0 0,0 0,0 0,0 -1,0 0,0 0,0 0,0 0,0 0,0 0,0 0,1 1,1 1,1 0,0 0,0 0,0 0,0 0,0 0,0 0,0 0,0 0,0 -1,0 -1,0 -1,0 0,0 0,1 0,1 0,0 0,0 0,0 0,0 0,0 0,0 0,0 0,0 0,0 0,0 0,0 0,0 0,0 1,0 1,0 0,0 0,0 0,0 0,0 0,0 0,0 0,0 0,0 0,0 0,0 0,1 0,1 0,0 0,0 0,0 0,1 -1,0 -1,0 0,1 0,1 1,1 0,0 0,0 0,0 0,0 0,0 1,0 0,0 0,0 0,0 0,0 0,0 0,0 0,0 0,0 0,0 0,0 0,0 0,0 0,0 0,1 1,1 -1,0 -2,1 -2,1 0,0 -1,0 -1,0 -1,0 -2,0 -2,0 0,0 0,0 0,-1 -1,0 -1,0 -1,0 0,0 0,0 0,0 0,0 -1,0 -1,0 0,0 0,0 1,0 0,0 -1,0 -1,1 0,0 0,0 1,0 0,0 0,0 0,0 0,0 0,0 0,0 -1,0 -1,0 -1,0 0,0 0,0 0,0 0,0 0,0 0,0 -1,0 -1,0 -1,1 0,0 0,-1 1,-1 0,0 0,1 0,1 0,0 0,0 1,0 0,0 0,0 0,0 0,0 -1,0 -1,1 0,0 1,0 1,0 0,0 0,0 0,0 -1,0 0,1 0,1 0,-1 0,-1 0,-1 0,0 0,0 0,0 1,0 0,-1 1,-1 0,0 0,0 0,0 0,1 0,1 0,1 1,0 1,-1 1,-1 0,0 0,0 0,0 0,0 0,0 0,1 0,0 0,0 0,-1 0,1 0,1 0,1 0,0 1,0 1,-1 0,0 0,1 0,1 0,0 0,0 0,0 0,0 0,0 1,0 0,0 0,0 0,0 0,0 0,0 0,0 0,0 0,0 0,0 0,0 0,0 0,1 1,-2 1,-1 2,-2 0,0 0,0 0,0 0,1 0,1 0,1 0,0 0,0 0,-1 0,0 1,0 1,0 0,0 0,0 1,-1 0,1 0,1 0,1 0,0 1,-1 1,-1 2,0 -1,-1 3,-1 0,0 0,0 0,0 0,0 0,1 1,1 0,0 0,0 0,0 1,0 0,0 0,0 0,1 0,1 0,1 -1,0 -1,-1 -2,-1 0,0 0,0 0,0 0,0 -1,0 -1,1 0,0 1,-1 1,-1 0,0 0,1 0,1 0,0 0,0 0,0 0,0 0,0 0,0 1,0 1,0 1,0 0,0 -1,0 -1,0 0,1 0,1 0,1 0,0 0,0 1,0 -1,0 -1,0 -1,0 0,0 0,0 1,0 0,0 0,0 0,0 0,0 0,0 0,0 0,0 0,0 0,0 0,0 0,0 0,0 0,0 0,0 0,0 0,0 0,1 1,0 -1,0 -1,0 -1,0 0,0 0,0 0,0 0,0 0,0 0,0 0,0 0,0 1,0 0,0 0,0 0,0 0,0 0,0 0,0 0,0 0,0 0,0 1,0 1,-1 1,-1 0,0 0,0 0,0 1,0 1,0 1,0 1,0 0,-1 0,-1 0,0 0,0 0,-1 0,0 1,1 1,1 1,0 0,-1 1,-1 0,0 1,0 1,0 0,0 1,0 0,0 0,1 1,1 0,1 0,0 0,0 0,0 -1,0 -1,0 -1,0 0,0 0,1 0,1 0,0 0,0 0,0 0,0 0,0 0,0 0,0 1,0 1,0 0,0 0,0 0,0 0,0 -1,1 0,1 0,0 0,0 0,0 0,0 0,0 0,1 0,-1 0,-1 0,-1 0,0 0,0 0,0 1,0 1,0 1,-1 0,0 0,0 0,0 0,1 0,1 0,1 0,0 0,0 0,0 0,0 0,1 1,0 0,0 0,0 0,0 0,0 0,0 0,0 0,-1 -1,-1 -1,-1 0,0 1,0 1,-1 0,0 0,0 0,0 0,0 0,0 0,0l0 0c0,0 0,0 0,0 0,0 0,-1 0,-1 0,0 0,0 0,0 0,0 0,0 0,-1 0,1 -1,1 -1,0 0,0 0,0 0,0 -1,0 -1,0 -3,0 0,0 0,0 0,0zm-9 -4c0,0 0,0 0,0 0,0 0,0 0,0zm2 0c1,0 1,0 1,0 0,0 0,0 0,0 0,0 -1,0 -1,0zm0 -1c0,1 -1,1 -1,1 0,-1 0,-1 0,-1 0,0 1,0 1,0zm-1 2c0,0 0,0 0,0 0,0 0,0 0,0 1,0 0,0 0,0 0,0 0,-1 0,-1 0,0 0,0 0,0 0,0 0,0 0,0 0,0 0,0 0,0l1 1c0,0 0,0 0,0 0,0 0,0 0,0 0,0 0,0 0,0 0,0 0,0 0,0 0,0 0,0 0,0 0,0 0,0 0,0 0,1 0,1 0,1 0,0 -1,0 -1,0 0,0 0,0 0,-1zm12 14c0,-1 -1,-2 -3,-2 -3,0 -10,1 -10,0 0,-1 1,-1 3,-1 0,0 0,0 1,0 3,1 8,-1 10,0 -3,-2 -5,0 -8,-1 2,0 2,0 2,0 -1,0 -3,-1 -5,0 0,0 0,0 0,0 -2,0 -4,0 -4,2 0,2 8,1 10,1 3,0 3,0 3,0 0,1 -2,1 -3,1 -2,0 -9,-1 -13,0 1,-1 1,-1 1,-2 0,0 1,0 1,-1 -1,0 -1,0 -1,0 0,0 0,0 0,0 0,-1 0,-1 0,-1 -1,0 -1,0 -1,-1 -1,0 -1,0 -1,0 0,0 -1,0 -1,0 0,0 0,0 0,1 0,-1 -1,-1 -1,-1 0,1 0,1 0,1 0,0 -1,1 -1,1 0,0 0,0 0,0 0,1 0,2 0,2 0,0 0,0 0,0 0,0 0,1 0,1l-1 0c0,0 0,0 0,0 0,0 0,0 0,0 0,0 0,0 0,0l0 0c0,-1 -1,-1 -1,-1 -1,-1 -1,-1 -1,-2 0,0 0,-1 0,-1 0,0 0,0 0,0 0,-1 0,-1 0,-1 0,0 0,0 0,1 0,0 0,0 0,0 0,0 -1,0 0,0 0,0 0,0 0,0 0,0 0,1 0,1 0,0 0,0 0,0 -1,-1 -1,-1 -1,-1 0,0 0,0 0,0 0,0 0,0 0,0 0,-1 -1,-1 -1,-1 0,0 0,1 0,1 0,0 0,0 0,0 0,0 0,1 1,1 0,0 0,0 0,0 0,0 0,0 0,0 0,0 0,0 0,0 -1,0 -1,0 -1,0 0,0 0,0 0,0 0,1 0,1 0,1 0,0 0,0 0,0 0,0 0,0 0,0 0,0 0,0 0,0 0,0 1,0 1,0 0,0 0,0 0,0 0,0 0,0 0,0 0,0 0,0 0,0 0,0 0,1 0,1 0,0 0,0 0,0 0,1 -1,1 -1,0 0,1 1,2 2,1 0,0 0,0 0,0 0,0 0,0 0,0 0,0 0,0 0,0 0,0 0,0 0,0 0,1 0,1 0,1 0,0 0,0 1,0 0,0 0,0 1,0 0,1 1,1 1,1 0,1 0,1 0,1 0,0 -1,0 -2,0 0,1 -2,1 -2,0 0,0 0,0 0,0 0,0 -1,-1 -1,-1 0,0 0,0 0,0 0,0 -1,0 -1,0 0,0 1,0 1,1 0,0 0,0 0,0 -1,0 -1,0 0,1 0,0 0,0 0,0 0,0 0,0 0,0 0,0 0,-1 -1,-1 0,0 0,0 0,0 0,0 0,0 0,0 -1,0 -1,1 -1,1 0,0 0,0 1,0 0,0 0,0 0,0 0,1 0,1 1,0 0,0 0,0 0,0 0,1 -1,1 0,1 0,0 0,1 0,1 0,0 0,0 0,0 0,0 0,1 0,1 0,-1 0,-1 0,-1 0,0 0,0 0,0 1,0 1,-1 1,-1 0,0 0,0 0,0 0,0 0,1 1,1 0,0 0,-1 0,-1 0,0 0,0 0,0 0,0 1,0 1,0 0,0 0,0 0,0 0,0 0,1 0,1 0,0 0,0 1,-1 0,0 0,0 0,0 0,0 0,0 0,0 0,0 0,0 1,0 0,0 0,0 0,0 0,1 0,1 0,1 0,0 0,0 0,0 0,0 0,0 0,0 0,-1 1,0 2,-1 0,0 0,0 0,0 0,0 0,1 0,1 1,0 2,-2 2,-2 1,0 1,0 1,0 3,0 1,-2 5,-2 0,0 1,0 1,0 -1,0 -1,1 0,2 0,0 1,0 1,0 0,0 0,0 0,0 0,0 -1,0 -1,0 -1,1 -1,-1 -2,-1 0,0 0,0 0,1 0,0 -1,0 -1,0 0,0 1,0 1,0 0,0 0,0 0,0 0,0 0,0 0,0 0,0 1,0 1,0 0,0 0,0 0,0 0,1 -1,0 -1,1 0,0 0,0 0,1 0,0 0,0 1,0 0,0 -1,0 -1,0 1,0 1,0 1,0 0,0 0,0 0,-1 0,0 0,0 0,0 0,0 0,0 0,1 0,0 0,0 0,0 0,0 0,0 0,0 0,0 0,1 1,0 0,0 -1,0 -1,0 1,0 1,0 1,0 0,0 0,0 0,0 0,0 0,0 0,0 0,0 0,0 0,0 0,0 0,0 0,0 0,0 1,0 1,0 1,0 0,-1 1,-1 0,0 0,0 0,0 0,0 1,0 1,0 0,0 0,-1 0,-1 0,-1 0,-1 0,-1 0,0 1,0 1,0 2,0 2,0 3,-1 0,0 1,0 1,0 0,0 0,0 0,1 0,0 0,0 0,1 0,0 0,0 -1,0 0,0 0,0 0,0 0,0 -1,0 -1,1 0,0 0,-1 1,-1 0,0 0,0 0,1 0,0 0,0 1,0 0,0 0,0 0,0 -1,0 -1,1 -1,1 0,0 1,0 1,0 0,0 0,0 0,0 0,0 0,0 0,0 0,0 0,0 0,0 1,0 0,-1 1,-1 0,0 0,0 0,0 0,0 0,1 0,1 0,0 0,0 0,0 0,0 1,0 1,0 0,0 0,0 0,0 0,0 0,0 0,0 0,-1 -1,-1 -1,-1 0,-1 1,0 1,-1 0,0 0,0 0,-1 0,0 0,0 0,0l0 0c0,0 0,0 0,0 0,0 0,0 0,-1 0,0 0,0 0,0 0,0 0,0 0,0 0,0 -1,0 -1,0 0,0 0,-1 0,-1 -1,0 -2,0 -3,0 2,0 4,0 4,-1zm-22 1c0,0 0,0 0,0 0,0 0,0 0,0zm4 -4c1,0 1,0 2,1 -1,0 -1,0 -1,0 0,0 -1,-1 -1,-1zm0 0c0,0 -1,0 -1,0 0,0 0,0 0,-1 0,0 1,1 1,1zm-1 2c0,0 0,0 0,0 0,0 0,0 0,-1 0,0 0,0 0,0 0,0 0,0 0,0 0,0 0,0 0,0 0,0 0,0 0,0 0,-1 0,-1 0,0l1 0c0,0 0,0 0,0 0,0 0,0 0,0 0,1 0,0 0,0 0,0 0,0 0,1 0,-1 0,-1 0,0 -1,0 -1,0 0,0 0,0 0,0 0,0 -1,1 -1,1 -1,1 0,0 0,-1 0,-1zm2 5c0,0 0,0 0,0 0,0 0,0 0,0zm16 8c0,-1 -1,-1 -4,-1 -2,0 -11,1 -11,-1 0,-1 3,0 5,0 0,0 0,0 1,0 3,1 7,-1 10,0 -2,-2 -5,0 -8,-1 2,0 3,0 4,-1 -2,1 -5,0 -6,1 -1,0 -1,0 -1,0 -2,0 -5,0 -5,1 0,3 9,1 11,1 3,0 3,1 3,1 0,1 -2,1 -3,1 -3,0 -11,-1 -15,0 0,-1 1,-2 1,-2 0,0 0,-1 0,-1 0,0 0,0 0,0 0,0 0,-1 -1,-1 0,0 0,0 0,0 0,0 0,-1 -1,-1 0,0 0,0 0,0 -1,0 -1,0 -1,0 0,0 0,0 0,0 -1,0 -1,0 -1,0 0,0 0,1 0,1 0,0 -1,1 -1,1 0,0 0,0 0,0 0,1 0,1 0,1 0,0 0,0 0,1 0,0 0,0 0,0l-1 0c0,0 0,0 0,0 0,0 0,0 0,0 -1,0 -1,-1 -2,-1 0,0 0,-1 0,-1 0,-1 0,-1 0,-1 0,-1 0,-1 0,-1 -1,0 -1,0 -1,0 0,0 0,0 0,0 0,0 0,0 0,0 0,0 0,1 0,1 0,0 0,0 0,0 0,0 0,0 0,0 0,0 0,0 0,0 0,0 0,-1 -1,-1 0,0 0,0 0,0 0,0 0,0 0,0 0,0 0,0 -1,0 0,0 1,0 1,0 0,0 0,0 0,1 -1,0 0,0 0,0 0,0 0,0 0,0 0,0 0,0 0,0 0,0 0,0 0,0 0,0 -1,0 -1,1 0,0 0,0 0,0 0,0 0,0 0,1 0,-1 0,-1 1,-1 0,0 0,0 0,0 0,0 0,0 0,0 0,0 0,0 0,0 0,0 0,0 0,0 0,0 1,0 1,0 0,0 0,0 0,0 -1,1 -1,1 0,1 0,0 0,0 0,0 0,1 -1,1 -1,0 -1,1 0,2 1,1 0,0 0,0 0,0 0,1 0,1 0,1 0,0 0,0 1,0 0,0 0,0 0,0 0,0 0,0 0,0 0,0 0,0 0,0 0,0 1,1 2,1 0,0 0,0 1,0 0,0 0,0 0,0 0,1 0,2 0,2 0,0 -2,-1 -2,0 -1,0 -2,0 -2,0 -1,0 0,0 -1,-1 0,0 0,0 0,0 0,0 0,0 0,0 -1,0 -1,0 -1,0 0,0 0,0 0,0 0,0 0,0 0,0 0,1 0,1 1,1 0,0 0,0 0,0 0,0 0,0 -1,0 0,0 0,0 0,0 0,0 0,0 0,0 -1,0 -1,0 -1,0 0,0 0,0 0,1 0,0 0,-1 0,-1 0,0 0,1 0,1 0,0 1,0 1,0 0,0 0,0 0,0 0,0 0,0 0,1 0,0 0,0 0,0 0,0 0,0 0,0 0,0 1,1 1,1 0,0 0,-1 0,-1 0,0 0,0 0,0 0,0 0,-1 0,-1 0,0 1,0 1,0 0,1 0,1 0,1 1,0 1,0 1,-1 0,0 0,0 0,0 0,0 0,1 0,1 0,0 0,0 0,-1 0,1 0,1 0,1 0,0 1,0 1,-1 0,1 0,1 0,1 0,0 0,0 0,0 0,0 1,0 1,0 0,0 0,0 0,0 0,0 0,0 0,0 0,0 0,0 0,0 1,0 0,0 1,1 0,-1 1,-1 2,-1 0,0 0,0 0,0 0,0 0,0 0,0 0,0 0,0 1,0 0,0 0,0 0,0l1 -1c0,0 0,0 0,0 0,0 0,0 0,0 0,0 0,0 0,0 1,0 1,-1 1,-1 5,1 2,-2 7,-1 1,0 1,0 1,0 0,0 0,1 0,1 1,0 1,0 1,0 0,0 0,0 0,0 0,0 0,1 -1,1 0,0 0,-2 -1,-1 0,0 0,0 -1,0 0,0 0,0 0,1 0,0 0,-1 0,-1 0,0 0,1 0,1 0,0 0,0 1,0 0,0 0,0 0,0 0,0 0,0 0,0 0,0 -1,0 -1,1 0,0 0,0 0,0 0,0 1,0 1,0 0,0 0,0 0,0 0,0 0,0 0,0 0,0 0,0 0,0 0,0 0,0 0,0 0,0 0,0 0,0 0,0 0,0 0,0 0,0 0,0 0,0 0,1 1,1 1,1 0,0 0,0 0,-1 0,0 0,0 0,0 0,0 0,0 0,0 0,0 0,0 0,0 0,0 0,0 0,0 0,0 0,0 1,0 0,0 0,0 0,0 1,0 0,0 1,-1 0,0 0,0 0,0 1,1 1,1 1,0 0,0 0,-1 0,-1 0,0 0,-1 0,-1 0,0 1,0 1,0 2,0 2,0 2,0 1,0 2,0 2,0 0,0 0,0 0,0 0,1 0,1 0,1 0,0 0,0 -1,0 0,0 0,0 0,0 -1,0 -1,1 -1,1 0,0 0,0 1,0 0,0 0,0 0,0 0,0 0,0 0,0 1,0 1,0 1,0 -1,0 -1,1 -1,1 0,0 0,0 0,0 0,0 1,1 1,1 0,0 0,-1 0,-1 0,0 0,0 0,0 0,0 0,0 1,-1 0,0 0,0 0,0 0,1 -1,1 0,1 0,0 0,0 0,0 0,1 0,1 1,1 0,-1 -1,-1 -1,-1 1,0 1,0 1,0 0,-1 -1,-1 -1,-1 0,0 1,0 1,-1 0,0 0,0 0,0 0,0 0,0 0,0l0 0c0,0 0,0 0,0 0,0 0,-1 0,-1 0,0 0,0 0,0 0,0 0,-1 0,-1 0,0 -1,1 -1,0 0,0 0,0 0,0 -1,0 -2,0 -3,0 1,0 4,-1 4,-2zm-20 -2c0,0 1,0 1,0 0,0 0,1 -1,1 0,0 0,-1 0,-1zm-1 0c0,0 0,0 0,0 0,0 0,0 -1,-1 1,0 1,1 1,1zm-1 2c0,0 1,-1 1,-1 0,0 0,0 0,0 0,0 0,0 0,0 0,0 0,0 0,0 0,-1 0,0 0,0 0,-1 0,-1 0,-1 0,0 0,0 0,0l1 1c0,0 0,0 0,0 0,0 0,0 0,0 0,0 0,0 0,0 0,0 0,0 0,0 -1,0 -1,0 -1,0 0,0 0,1 0,1 0,0 0,0 0,0 0,0 0,1 0,0 -1,0 -1,0 -1,0zm61 21c0,0 0,0 0,0 0,0 0,0 0,-1 0,1 0,1 0,0 0,0 0,0 -1,0 -1,0 -2,0 -3,0 0,0 0,0 0,0 1,0 4,-1 4,-2 0,0 -1,-1 -3,-1 -3,0 -12,1 -12,0 0,-1 3,-1 5,-1 1,0 1,0 1,0 4,1 8,-1 10,-1 -3,-1 -5,1 -7,1 1,0 3,-1 3,-1 -1,1 -5,-1 -6,0 0,0 0,0 -1,0 -2,0 -5,0 -5,2 0,2 9,1 12,1 2,0 2,0 2,0 0,1 -2,1 -3,1 -2,0 -11,-1 -15,0 0,-1 1,-1 1,-2 0,0 0,0 0,-1 0,0 0,0 0,0 0,0 0,0 0,0 0,0 -1,-1 -1,-1 0,0 0,0 0,0 -1,-1 -1,-1 -1,-1 0,0 -1,0 -1,0 0,0 0,0 0,1 0,-1 -1,-1 -1,-1 0,1 0,1 0,1 0,0 -1,1 -1,1 0,0 0,0 0,0 0,1 0,2 0,2 0,0 0,0 0,0 0,0 0,1 0,1l0 0c-1,0 -1,0 -1,0 0,0 0,0 0,-1 -1,0 -1,0 -2,-1 0,0 0,0 0,-1 0,0 0,-1 0,-1 0,0 0,0 0,-1 0,0 -1,0 -1,0 0,0 0,0 0,0 0,1 0,1 0,1 0,0 0,0 0,0 0,0 0,0 0,0 0,0 0,0 0,0 0,1 0,1 0,0 0,0 0,0 0,0 -1,0 -1,0 -1,0 0,0 0,0 0,0 0,-1 0,-1 -1,-1 1,0 1,0 1,0 0,1 0,1 0,1 0,0 0,0 0,0 0,0 0,0 0,0 0,0 0,1 1,1 0,0 -1,0 -1,0 0,-1 0,0 0,0 0,0 0,0 0,0 -1,0 -1,1 0,1 0,0 0,0 0,-1 0,0 0,0 0,0 0,1 0,1 0,1 0,0 0,0 0,-1 0,0 1,0 1,0 0,1 0,1 0,1 0,0 0,0 0,0 -1,0 -1,1 0,1 0,0 0,0 0,0 0,1 -1,0 -1,0 -1,0 0,1 1,1 0,0 0,0 0,0 0,0 0,0 1,0 0,0 0,0 0,0 0,0 0,0 0,0 0,0 0,0 0,0 0,0 0,0 0,0 0,0 1,1 2,2 0,0 0,0 1,-1 0,1 0,1 0,1l0 0c0,0 1,1 1,1 0,0 -1,0 -2,0 0,0 -2,1 -2,0 0,0 0,0 0,0 0,-1 -1,-1 -1,-1 0,0 0,0 0,0 0,0 -1,0 -1,0 0,0 1,0 1,0 0,1 0,1 0,1 -1,0 -1,0 0,0 0,0 0,0 0,1 0,0 0,0 0,-1 0,0 0,0 -1,0 0,0 0,0 0,0 0,0 0,0 0,0 -1,0 -1,1 -1,1 0,0 0,0 1,0 0,0 0,0 0,0 0,0 0,1 1,0 0,0 0,0 0,0 0,0 -1,1 0,1 0,0 0,0 0,0 0,0 0,0 0,0 0,1 0,1 0,1 0,0 0,0 0,-1 0,0 0,0 0,0 1,0 1,0 1,0 0,0 0,0 0,0 0,0 0,0 1,0 0,0 0,0 0,0 0,0 0,0 0,0 0,0 0,0 0,0 0,0 1,0 1,0 0,0 0,0 0,1 0,0 0,-1 0,-1 0,0 0,0 1,0 0,0 0,0 0,0 0,0 0,0 0,0 1,0 1,0 1,0 0,0 0,0 0,1 0,-1 0,-1 0,-1 0,0 0,1 0,1 0,-1 1,-1 2,-1 0,0 0,0 0,0 0,0 0,0 -1,0 1,0 2,0 2,-1 0,0 0,0 1,0 0,0 0,0 0,0 5,0 2,-2 8,-2 0,0 0,0 0,0 0,0 0,1 0,1 1,0 1,0 1,1 0,0 0,0 0,0 0,0 0,0 0,0 -1,0 -1,-1 -2,-1 0,0 0,0 0,0 -1,0 -1,1 -1,1 0,0 0,0 0,0l0 0c0,0 1,0 1,0 0,0 0,0 0,0 0,0 0,0 0,0 0,0 -1,0 -1,1 0,0 0,0 1,0 -1,0 0,1 0,1 0,-1 0,-1 0,-1 0,0 0,0 0,0 0,0 0,0 0,0 0,0 0,0 0,0 0,0 0,0 0,0 0,0 0,0 0,0 0,0 0,1 0,1 0,0 1,0 1,0 0,0 0,0 0,0 0,0 0,0 0,0 0,0 0,-1 0,-1 0,0 0,0 0,0 0,0 0,0 1,0 0,0 0,0 0,0 0,0 0,1 0,1 1,-1 0,-1 1,-1 0,0 0,0 0,0 1,0 1,0 2,0 0,-1 0,-1 -1,-2 0,0 0,0 0,-1 0,1 1,1 2,1 1,0 1,0 2,-1 0,0 1,0 1,0 0,0 1,0 1,0 -1,1 0,1 -1,1 0,1 0,0 -1,0 0,0 0,1 0,1 0,0 -1,0 -1,0 0,0 1,0 1,0l0 0c0,1 0,1 1,0 0,0 0,0 0,1 -1,0 -1,0 -1,0 0,0 0,0 1,0 -1,1 0,1 0,1 0,0 0,0 0,-1l0 0c0,0 0,0 1,0 0,0 0,0 0,0 0,0 0,0 0,1 0,0 0,0 0,0 0,0 0,0 1,0 0,0 -1,0 -1,0 1,-1 1,-1 1,-1 0,0 -1,0 -1,-1 0,0 1,0 1,0 0,-1 0,-1 0,-1 0,0 0,0 0,0l0 0c0,0 0,0 0,0 0,0 0,-1 0,-1zm-20 -5c0,0 1,0 1,1 0,0 0,0 0,0 -1,0 -1,-1 -1,-1zm0 0c-1,0 -1,0 -1,0 0,0 0,0 0,-1 0,0 0,1 1,1zm-1 2c0,0 0,0 0,0 0,0 0,0 0,-1 0,0 0,0 0,0 0,0 0,0 0,0 0,0 0,0 0,0 0,0 0,0 0,0 0,-1 0,-1 0,0l1 0c0,0 0,0 0,0 0,0 0,0 0,0 0,0 0,0 0,0 0,0 0,0 0,0 0,0 -1,0 -1,1 0,0 0,0 0,0 1,0 0,0 0,0 0,1 0,1 0,1 -1,0 -1,-1 0,-1zm-1 -1l0 0 0 0zm0 -1c0,0 0,0 0,0 0,0 0,0 0,0zm4 6l0 0c0,0 0,0 0,0zm6 6c0,0 0,0 0,1 4,1 8,-2 10,-1 -3,-1 -5,0 -7,0 1,0 3,-1 3,-1 -1,1 -5,0 -6,0 0,0 0,0 0,1 -2,-1 -4,-1 -4,1 0,2 7,1 10,1 2,0 2,0 2,0 0,1 -3,1 -4,1 -2,0 -8,-1 -11,0 0,-1 1,-1 0,-2 1,0 1,0 1,0 0,-1 -1,-1 -1,-1 0,0 0,0 0,0 0,0 0,-1 0,-1 0,0 0,0 -1,0 0,0 0,0 -1,0 0,0 0,0 0,0 0,0 -1,0 -1,0 0,0 0,0 0,0 0,0 0,0 0,1 -1,0 -1,0 -1,0 0,0 0,1 0,1 0,0 0,1 0,1 0,0 0,0 0,0 0,0 0,1 0,1l-1 0c0,0 0,0 0,0 0,0 -1,0 -1,-1 -1,0 -1,0 -1,-1 0,0 0,-1 0,-1 0,0 0,0 0,0 0,-1 0,-1 0,-1 0,0 0,0 0,1 0,0 0,0 0,0 0,0 0,0 0,0 0,0 0,0 0,0 0,0 0,1 0,1 0,0 0,0 0,0 0,-1 -1,-1 -1,-1 0,0 0,0 0,0 0,0 0,0 0,0 0,-1 0,-1 -1,0 0,0 0,0 0,0 0,0 0,0 0,0 0,0 1,0 1,0 0,0 0,1 0,1 0,0 0,0 0,0 0,0 0,0 0,0 -1,-1 -1,0 -1,0 0,0 0,0 0,0 0,0 0,1 0,1 0,0 0,0 0,0 1,0 1,0 1,0 0,0 0,0 0,0 0,0 0,0 0,0 0,0 0,0 0,0 0,0 0,0 0,0 0,0 0,0 0,0 0,0 0,1 1,1 0,0 0,0 0,0 0,0 -1,0 -1,0 -1,0 0,1 1,1 0,0 0,0 0,0 0,0 0,0 0,0 0,0 0,0 0,0 0,0 0,0 0,0 0,0 0,0 1,0 0,0 0,0 0,0 0,0 0,0 1,0 0,0 0,1 0,1l1 -1c0,1 0,2 0,2 0,0 -1,0 -2,0 0,0 -1,1 -2,0 0,0 0,0 0,-1 0,0 0,0 0,0l-1 0c0,0 0,0 -1,0 1,0 1,0 1,0 0,0 0,1 0,1 0,0 0,0 1,0 0,0 0,0 0,0 -1,0 -1,0 -1,0 0,0 0,0 -1,0 0,0 0,0 0,0 0,0 0,0 0,0 0,0 -1,0 0,1 0,0 0,-1 0,-1 0,1 0,1 0,1 0,0 0,0 1,0 0,0 0,0 0,0 0,0 -1,1 0,1 0,0 0,0 0,0 0,0 0,0 0,0 0,0 0,1 1,1 0,0 -1,-1 -1,-1 0,0 1,0 1,0 0,0 0,0 0,-1 0,0 0,0 0,0 0,1 0,1 1,1 0,0 0,0 0,-1 0,0 0,0 0,0 0,0 1,1 1,1 0,0 0,0 0,0 0,0 0,0 0,0 0,0 0,0 0,0 1,0 1,0 1,0 0,0 0,0 0,0 0,0 0,0 1,0 0,0 0,0 0,0 0,0 0,0 0,0 0,0 0,0 0,0 0,0 0,0 0,1 0,-1 1,-1 2,-2 0,0 0,0 0,0 0,1 0,1 0,1 0,0 1,-1 1,-1 1,0 1,-1 1,-1 0,1 0,1 -1,1 1,0 1,-1 1,-1 3,0 1,-2 5,-1 0,0 0,0 1,0 -1,0 -1,1 0,1 0,0 0,0 1,0 0,1 0,1 0,1 -1,0 -1,0 -1,0 -1,0 -1,-1 -2,-1 0,0 0,0 0,0 0,0 -1,0 -1,1 0,0 1,0 1,-1 0,1 0,1 0,1 0,0 0,0 0,0 0,0 0,0 1,0 0,0 0,0 0,0 0,0 -1,0 -1,1 0,0 0,0 0,0 0,0 0,0 1,0 -1,0 -1,0 -1,0 0,0 1,0 1,0 0,0 0,0 0,0 0,0 0,0 0,0 0,0 0,0 0,0 0,0 0,0 0,0 0,0 0,0 0,0 0,1 0,1 1,1 0,0 -1,0 -1,-1 0,0 0,0 0,0 1,0 1,0 1,0 0,0 0,0 0,0 0,0 0,0 0,0 0,0 0,0 0,0 0,0 0,0 1,0 0,0 0,0 0,0 0,-1 0,-1 1,-1 0,1 1,1 1,0 0,0 0,-1 -1,-1 0,0 0,0 0,-1 1,0 1,1 2,1 1,0 1,-1 2,-1 1,0 1,0 1,0 1,0 1,0 1,0 -1,1 0,1 -1,1 0,0 0,0 -1,0 0,0 0,0 0,0 0,0 -1,1 -1,1 0,0 0,0 1,0 0,0 0,0 0,0 0,0 0,1 0,0 0,0 1,0 0,0 0,0 0,1 0,1 0,0 0,0 0,0 0,0 0,1 0,1 0,0 0,-1 1,-1 0,0 0,0 0,0 0,0 0,0 0,0 0,0 0,0 0,0 0,0 0,0 0,0 0,0 0,0 1,0 0,1 0,1 0,1 0,0 0,-1 0,-1 0,0 0,0 0,0 1,-1 0,-1 0,-1 0,0 1,0 1,-1 0,0 0,0 0,0 0,0 0,0 0,0l0 0c0,0 0,0 0,0 0,0 0,-1 0,-1 0,0 0,0 0,0 0,0 0,0 0,-1 0,1 0,1 0,0 0,0 0,0 -1,0 0,0 -2,0 -3,0 0,0 0,0 0,0 1,0 4,-1 4,-2 0,0 0,-1 -2,-1 -3,0 -9,1 -9,0 0,-1 1,-1 3,-1zm-9 0c0,0 0,0 0,0 -1,0 0,0 -1,-1 1,1 1,1 1,1zm1 2c0,0 0,-1 0,-1 -1,0 -1,0 -1,1 0,-1 0,-1 0,0 0,0 0,0 0,0 0,0 0,0 0,0 0,1 0,1 -1,1 0,0 0,-1 0,-1 0,0 0,0 1,0 0,0 0,0 0,0 0,-1 0,-1 0,-1 0,0 0,0 0,0 0,0 -1,0 -1,0 0,0 0,0 1,0 0,0 0,0 0,0l1 0c0,0 0,0 0,0 0,0 0,0 0,1zm0 -1c0,0 0,0 0,-1 0,0 1,1 1,1 -1,0 0,0 -1,0zm5 11c0,0 0,1 1,1 3,1 7,-2 9,-1 -3,-1 -5,0 -7,0 1,0 3,-1 3,-1 -1,1 -4,0 -6,0 0,0 0,1 0,1 -1,0 -2,0 -2,1 0,2 9,1 9,1 0,1 -2,2 -4,2 -2,0 -5,-2 -9,-1l0 0c1,0 1,-1 1,-2 0,0 1,0 1,0 -1,0 -1,-1 -1,-1 0,0 0,0 0,0 0,0 0,0 0,0 0,-1 -1,-1 -1,-1 0,0 -1,0 -1,0 0,0 0,0 0,0 0,0 -1,0 -1,0 0,0 0,0 0,0 0,0 0,0 0,1 -1,0 -1,1 -1,0 0,1 0,1 0,1 0,0 0,1 -1,1 1,0 1,0 1,0 0,1 0,2 0,2 -1,0 -2,-2 -2,-2 -1,0 -1,0 -1,-1 0,0 1,-1 0,-1 0,0 0,0 0,-1 0,0 0,0 0,0 0,0 0,0 0,0 0,1 0,1 0,1 0,0 0,0 0,0 0,0 0,0 0,0 0,0 0,0 0,0 0,0 0,0 0,0 0,0 -1,0 -1,0 0,0 0,0 0,0 0,0 0,0 0,0 0,-1 0,-1 -1,-1 0,0 1,0 1,0 0,1 0,1 0,1 -1,0 0,0 0,0 0,0 0,0 0,0 0,0 0,0 0,0 0,1 0,1 0,0 0,0 -1,1 -1,1 0,0 0,0 0,0 0,0 0,0 1,1 -1,0 -1,-1 0,-1 0,0 0,0 0,0 0,0 0,0 0,0 0,0 0,0 0,0 0,0 0,0 0,0 0,0 0,0 0,0 1,0 0,0 0,0 0,1 0,1 1,1 0,0 0,0 0,0 0,1 -1,1 -1,0 -1,1 0,2 1,1 0,0 0,0 0,0 0,0 0,1 0,1 0,0 0,-1 0,-1 0,0 0,0 0,0 0,1 0,1 1,1 0,0 0,0 0,0 0,0 0,1 1,1 0,1 0,1 1,1 0,1 0,1 0,1 0,0 -1,0 -1,0 -1,0 -1,0 -1,0l0 0c0,0 0,0 0,0 -1,0 -1,0 -1,0 0,0 0,0 0,0 -1,-1 -1,-1 -1,-1 0,0 0,0 0,0 0,0 -1,0 -1,0 0,0 0,0 1,1 0,0 -1,0 -1,0 0,0 0,0 1,0 0,0 0,0 0,0 0,1 0,1 0,0 -1,0 -1,0 -1,0 0,0 0,0 0,0 0,0 0,0 0,0 -1,0 -1,1 -1,1 0,0 0,0 1,0 0,0 0,0 0,0 0,0 0,1 1,0 0,0 0,0 0,0 0,0 -1,1 -1,1 0,0 1,0 1,0 0,0 0,0 0,0 -1,1 0,1 0,1 0,0 0,0 0,-1 0,0 0,0 0,0 1,0 0,0 1,0 0,-1 0,0 0,0 0,0 0,0 0,0 1,0 1,0 1,0 0,-1 0,-1 0,-1 0,1 0,1 0,1 0,0 0,0 0,0 0,0 0,0 0,0 0,0 1,0 1,0 0,0 0,0 0,0 0,0 0,0 0,0 0,0 0,0 1,0 0,0 0,0 0,0 0,0 0,0 0,0 0,0 0,0 0,0 0,0 0,1 0,1 1,-1 1,-1 2,-1 0,0 0,0 0,0 0,0 0,0 0,0 0,0 1,0 1,-1 0,0 0,0 0,-2 0,0 0,0 1,0 0,0 1,0 2,0 0,0 -1,1 -1,1 1,0 1,1 1,1 0,0 0,0 0,0 0,0 0,0 0,0 -1,1 -1,-1 -2,0 0,0 0,0 0,0 0,0 -1,0 -1,0 0,0 0,0 1,0l0 0c0,0 0,1 0,1 0,0 0,0 0,0 0,0 0,0 0,0 0,0 -1,-1 0,0 0,0 0,0 0,1 0,0 0,0 0,0 0,0 0,0 0,0 0,0 0,0 0,0 0,0 0,0 0,-1 0,0 0,0 0,0 1,0 1,0 1,1 0,0 -1,0 -1,0 0,0 1,0 1,0 0,0 0,1 0,0 0,0 0,0 0,0 0,0 0,0 0,0 0,0 0,0 0,0 0,0 0,0 0,0 0,0 0,0 1,0 0,0 0,0 0,0 0,0 0,0 0,0 1,0 0,-1 1,-1 0,0 0,0 0,0 1,0 1,0 1,0 0,0 0,-1 0,-1 -1,0 0,-2 -1,-3 0,1 2,1 3,0 0,0 1,1 1,1 0,0 0,0 0,0 -1,1 -1,1 -1,1l0 0c0,0 0,-1 0,-1 -1,0 -1,0 -1,0 0,0 -1,0 -1,1 0,0 1,0 1,0 0,0 0,0 0,0 0,0 0,0 0,0l0 0 0 0c0,0 0,0 0,0 0,0 0,0 0,0 0,0 -1,0 -1,0 0,0 0,1 0,1 0,0 0,0 0,0 0,0 0,0 1,0 0,0 0,0 0,0 0,0 0,0 0,0 0,0 0,0 0,0 0,0 0,0 0,1 0,0 0,0 0,0 0,0 0,0 0,0 0,0 0,0 0,0 1,0 1,0 1,0 0,0 0,-1 0,-1 0,0 1,1 1,0 0,0 0,0 0,0 0,0 0,0 0,0l0 0c0,0 0,0 1,0 -1,-1 0,-1 0,-1 0,0 0,0 0,0 0,0 0,0 0,0 0,0 0,-1 0,-1 1,0 1,0 0,-1 0,0 -1,0 -1,-1 0,0 1,0 1,0 3,0 5,-1 5,-2 -1,-2 -9,1 -9,-1 0,0 0,-1 1,-1zm-6 0c0,1 0,1 1,1 -1,0 -1,0 -1,0 0,0 0,0 0,-1zm-1 0c0,0 0,1 -1,0 0,0 0,0 0,0 0,0 1,0 1,0zm-1 2c0,0 0,0 0,0 1,0 1,0 1,0 0,-1 0,-1 -1,-1 1,0 1,0 1,0 0,0 -1,0 -1,0 0,0 0,0 0,0 1,0 1,0 1,0l0 0c1,0 1,0 1,0 0,0 0,1 0,1 -1,0 0,-1 -1,-1 0,0 0,0 0,1 0,0 0,0 0,0 0,0 0,0 0,0 0,0 0,0 0,0 0,1 0,1 -1,1 0,0 0,-1 0,-1zm-132 -153c0,-1 -1,-2 -2,-2 -2,0 -3,1 -3,2 0,1 1,2 3,2 1,0 2,-1 2,-2zm-1 -5c0,-2 -1,-3 -2,-3 -1,0 -2,1 -2,3 0,1 1,2 2,2 1,0 2,-1 2,-2zm1 -3c1,0 2,-1 2,-2 0,-1 -1,-2 -2,-2 -1,0 -2,1 -2,2 0,1 1,2 2,2zm6 0c1,0 2,-1 2,-2 0,-2 -1,-2 -2,-2 -1,0 -2,0 -2,2 0,1 1,2 2,2zm24 -4c0,1 2,1 3,0 0,-1 0,-2 0,-3 -1,-1 -3,-1 -3,0 -1,1 -1,2 0,3zm-1 -5c1,0 1,-2 0,-3 -1,0 -2,0 -3,0 -1,1 -1,3 0,3 1,1 2,1 3,0zm-5 -1c0,0 0,-2 0,-2 -1,-1 -3,-1 -3,-1 -1,1 -1,3 0,3 0,1 2,1 3,0zm-5 4c1,-1 1,-2 0,-3 -1,-1 -2,-1 -3,0 -1,1 -1,2 0,3 1,1 2,1 3,0zm-14 -3l2 4 2 -3c0,0 0,0 0,0 1,2 1,4 1,5 0,1 1,3 2,3 2,0 3,-2 3,-3 0,-1 -1,-2 -1,-2 -1,-1 -3,-2 -3,-3 0,0 0,0 0,-1l3 1 -1 -4 -3 2c0,0 0,0 0,0l0 -4 -4 2 3 3c0,0 0,0 0,0l-4 0zm25 7c0,1 1,2 1,3 -1,-1 -2,-1 -2,-2l0 4c1,0 1,-1 2,-1 0,3 -2,4 -3,4 -1,1 -2,0 -2,-1 0,-2 1,-3 2,-1 0,-3 -2,-3 -3,-2 1,-3 1,-5 -2,-6 -2,3 -1,4 1,6 -2,-1 -4,1 -2,3 1,-2 2,-1 3,0 0,1 -1,3 -3,4 -3,1 -4,-1 -5,-3 1,0 2,0 4,1l-2 -5c0,2 -1,2 -3,3 0,-1 1,-4 1,-4l-5 2c0,0 2,1 3,3 -1,0 -2,0 -4,-1l2 5c1,-2 2,-3 3,-3 0,1 1,3 -2,5 -2,1 -4,0 -5,-1 0,-1 1,-2 2,-1 0,-3 -3,-3 -3,-1 0,-3 -1,-5 -4,-5 -1,2 0,4 3,5 -1,0 -3,2 -1,4 0,-2 2,-2 2,-1 1,1 1,2 0,3 -1,0 -3,0 -5,-2 0,0 1,0 2,0l-3 -4c0,2 0,3 0,3 -1,0 -1,-1 -1,-3l-3 3c2,1 5,3 8,7 3,-2 9,-4 13,-6 4,-1 10,-4 14,-4 -1,-6 -1,-9 0,-11l-3 0zm46 133c1,-2 -4,-5 -4,-8 0,-3 0,-6 -4,-10 -3,-5 -16,-18 -20,-22 1,0 3,-1 6,1 1,2 4,4 6,7 4,-9 8,-15 14,-22 0,-1 1,-1 2,-2 -2,0 -6,1 -8,2 0,-4 1,-7 -2,-9 1,-5 0,-11 -11,-19 6,1 9,7 14,3 -4,0 -5,-9 -19,-17 5,0 10,9 16,4 -6,-1 -8,-11 -19,-15 4,1 8,3 11,-2 -4,1 -6,-3 -10,-3 1,-5 1,-8 -1,-11 -2,0 -5,1 -7,3 -1,-3 -4,-3 -6,-3 0,1 1,3 -1,3 -2,1 -8,2 -13,4 -5,2 -11,6 -13,7 -1,1 -2,-1 -2,-2 -2,2 -4,4 -2,6 -3,0 -6,1 -9,3 0,3 3,6 7,8 -7,7 -1,13 -7,19 9,0 7,-12 11,-13 0,8 -5,10 -5,18 0,5 3,10 1,14 7,-2 5,-18 9,-23 1,3 1,6 0,8 -3,7 0,17 -4,21 7,-1 8,-13 14,-17 -5,11 -10,33 -18,44 -12,16 -19,36 -31,36 -5,0 -8,-3 -8,-9 0,-19 32,-32 32,-52 0,-8 -7,-12 -12,-12 -3,0 -7,2 -10,4 -1,0 -2,-1 -4,-1 -11,0 -8,21 -18,21 4,2 11,-2 15,-8 -2,13 -21,10 -19,25 2,-12 33,-10 33,-29 0,-2 -1,-4 -3,-5 2,-2 5,-2 7,-2 3,0 7,2 7,8 0,16 -33,31 -33,51 0,4 1,7 3,9 -2,1 -4,0 -6,-2 -1,5 7,9 12,6 1,0 2,1 3,1 -1,4 -6,5 -9,5 8,6 22,-2 21,-9 6,-5 10,-14 15,-20 -1,2 -1,3 -1,4 -5,9 -9,16 -10,27 -1,9 -6,18 -12,18 -2,0 -4,-2 -5,-1 -2,2 0,3 0,5 0,3 -5,5 -5,13 0,4 2,8 1,11 2,-1 5,-5 6,-9 2,11 -5,10 0,20 1,-4 4,-5 6,-4 2,2 1,3 0,4 -2,1 -3,9 3,8 -1,-1 -1,-3 2,-3 5,-1 6,1 11,1 3,0 4,-4 6,-4 2,0 2,2 1,3 4,-1 5,-3 5,-5 0,-2 -2,-3 -1,-4 2,-1 6,0 4,3 3,0 4,-2 4,-4 0,-3 -3,-5 -6,-4 -1,-2 -3,-3 -6,-3 -5,0 -4,4 -8,4 -5,0 -11,-7 -11,-20 0,-7 7,-8 12,-10 6,-3 15,-8 20,-17 4,-7 4,-15 4,-24 7,4 8,10 8,14 0,6 -3,8 -5,9 -2,1 -3,1 -3,2 0,1 1,2 1,2 3,2 3,4 3,7 1,3 3,7 7,10 1,-2 1,-4 1,-8 5,3 1,14 12,14 -2,-1 -2,-4 -1,-4 1,-1 3,0 5,3 2,3 1,3 7,3 5,0 2,-2 5,-2 3,0 3,3 1,6 5,-2 6,-5 5,-9 4,-2 6,1 6,3 4,-4 0,-8 -3,-9 0,-1 -1,-3 -3,-3 -1,0 -3,0 -5,0 -2,0 -3,3 -5,3 -7,0 -20,-12 -20,-18 0,-5 13,-8 13,-17 0,-10 -11,-14 -20,-21 3,-4 13,-4 18,-2 0,-3 2,-2 3,-7 2,4 0,8 2,10 1,-2 5,-2 5,-7 1,3 -1,9 1,11 1,-3 2,-4 4,-4 1,0 2,1 2,3 0,4 -6,2 -6,7 0,2 3,3 3,4 0,2 -2,4 -5,2 1,2 3,3 5,3 2,0 5,-2 6,-4 1,3 0,7 -2,7 2,1 8,0 7,-7 3,1 5,3 3,6 3,0 5,-1 5,-4 0,-2 -2,-3 -1,-6zm-61 -97c-3,0 -3,-3 -8,-4 3,-1 8,-2 12,-4 1,3 0,8 -4,8zm21 22c-4,2 -7,-2 -8,-4 -1,-2 -1,-4 0,-5 1,-2 2,-3 1,-5 -1,-2 -4,-1 -6,0 1,-3 1,-4 -1,-4 -2,0 -2,3 -3,3 -1,0 0,-2 0,-3 0,-2 1,-2 2,-3l11 -4c1,0 2,-1 3,0 1,1 3,2 2,3 0,1 -3,-1 -4,0 -2,1 0,2 2,3 -2,1 -5,2 -4,5 1,2 2,2 4,2 1,0 2,2 3,4 1,2 2,6 -2,8zm0 -31c-3,3 -7,1 -8,-2 4,-2 8,-4 12,-6 -3,5 -1,7 -4,8zm245 158c0,5 4,9 9,9 5,0 9,-4 9,-9 0,-5 -4,-9 -9,-9 -5,0 -9,4 -9,9zm3 0c0,-4 3,-7 6,-7 4,0 7,3 7,7 0,4 -3,7 -7,7 -3,0 -6,-3 -6,-7zm-37 8c-1,1 -2,2 -2,4 0,1 0,3 2,4 1,2 2,2 4,3 2,0 4,0 5,-1 2,-1 3,-2 3,-4 1,-3 -2,-6 -6,-7 -2,0 -4,0 -6,1zm4 8c-2,0 -4,-2 -4,-4 1,-1 1,-1 2,-2 1,0 2,-1 4,0 2,0 4,2 4,3 0,1 0,1 0,1 -1,2 -3,3 -6,2zm-54 -135c-2,2 -3,6 -1,8l0 0c1,3 5,3 8,1 2,-1 3,-3 3,-5 0,-1 0,-2 -1,-3 -1,-1 -2,-2 -3,-2 -2,0 -4,0 -6,1zm0 6c0,-2 1,-3 2,-4 1,-1 2,-1 3,-1 1,0 2,0 2,1 1,1 1,1 0,2 0,1 0,2 -1,3 -2,1 -5,1 -6,0 0,0 0,-1 0,-1zm40 106c-2,2 -2,4 -2,6l0 0c0,2 0,4 2,5 1,1 2,2 3,2 2,0 3,-1 4,-2 1,-1 2,-3 2,-5 0,-2 0,-4 -1,-5 -1,-1 -3,-2 -5,-2 -1,0 -2,0 -3,1zm3 11l0 0c-1,0 -1,-1 -2,-1 -1,-1 -1,-3 -1,-4 0,-2 0,-3 1,-4 1,0 2,-1 2,-1 2,0 4,2 4,5 0,1 -1,3 -2,4 0,0 -1,1 -2,1zm0 2l0 0 0 0zm-48 -86c-1,1 -2,2 -3,3 -1,3 1,6 4,8 2,1 4,1 6,1 1,-1 3,-2 3,-3 1,-1 1,-3 0,-4 0,-2 -2,-3 -4,-4 -2,-1 -4,-1 -6,-1zm2 9c-2,-1 -3,-3 -3,-5 1,-1 2,-1 2,-2 1,0 3,0 4,1 2,0 3,1 3,3 0,0 0,1 0,2 0,1 -1,1 -2,1 -1,1 -2,1 -4,0zm94 -18c3,8 8,11 13,9 -10,-1 -2,-19 -15,-19 -1,0 -1,1 -2,1 -2,-3 -5,-4 -8,-4 -6,0 -15,6 -15,17 0,23 27,25 27,46 0,6 -5,9 -10,9 -4,0 -8,-5 -12,-13 -2,-4 -6,-9 -10,-14 2,1 3,1 4,1 2,0 3,0 4,-1 1,-1 2,-2 2,-4l0 0c0,-2 -1,-4 -2,-5 -2,-2 -4,-3 -6,-3 -1,0 -3,1 -4,2 -1,0 -1,2 -1,3l0 0c0,1 0,2 0,3 -6,-8 -11,-15 -11,-19 0,-4 2,-7 6,-11 0,0 1,1 1,1l0 -1c2,-2 4,-4 8,-9l1 0 0 0 1 -2 -3 -2c1,-2 1,-4 2,-6 1,4 3,7 5,6 -1,-4 2,-9 0,-19 2,4 5,6 8,5 -6,-5 1,-13 -6,-24 2,1 4,0 5,-1 -7,-1 -4,-10 -16,-13 3,-1 4,-3 4,-4 -3,2 -6,-5 -17,-5 -1,-4 -5,-8 -9,-10 1,3 0,6 -1,8l-35 -35c-1,-1 -2,-1 -2,0 0,0 0,1 1,1l30 38c-2,1 -5,2 -7,3 -1,1 -3,2 -3,4 -5,3 -10,6 -13,8 -2,2 -3,3 -1,6 0,2 -2,5 3,3 3,-2 9,-6 10,-3 1,1 -3,2 -5,3 -2,1 -4,3 -4,4 0,1 2,0 2,1 0,1 1,2 2,2 1,0 2,-2 3,-2 0,1 -1,5 -1,6 3,0 5,-4 5,-6 0,-3 1,-3 2,-4 0,0 1,3 0,5 2,0 4,-3 3,-7 1,-1 2,-2 3,-2 1,0 3,4 7,4 6,0 9,-5 9,-8 1,-1 1,-3 0,-5 2,2 2,5 2,7 0,8 -15,12 -21,18 0,1 0,1 0,1l-8 -3 0 2c0,0 0,0 0,1 -1,3 -3,8 -4,11 0,0 0,1 0,1l1 0c-5,6 -8,12 -9,18 -1,-1 -3,-3 -5,-4 0,-1 0,-2 0,-2 1,-2 0,-4 -1,-5 -1,-1 -2,-2 -3,-2 -2,0 -3,0 -4,1 0,0 0,1 0,1 -1,0 -1,0 -1,-1 -3,-1 -5,-4 -7,-6 -1,0 -2,-1 -3,-1 -1,0 -2,0 -3,0 -1,0 -2,1 -3,2 -1,1 -2,2 -4,3 1,1 1,2 2,3 1,0 1,1 2,1 0,0 1,0 1,0 1,-1 2,-1 2,-1 1,0 3,0 4,2 0,1 6,8 11,14 -1,0 -1,0 -2,0 -2,1 -6,1 -8,1 -3,-1 -3,-1 -4,1 -1,1 -1,2 -2,3 -1,1 -1,1 0,4 2,3 7,13 9,17 2,4 4,5 7,6 3,2 9,5 10,5l0 -3c-1,-1 -4,-2 -5,-2 -2,-1 -2,-1 0,-1 1,0 5,1 8,2 -1,-3 -4,-6 -6,-8 -2,-1 -5,-1 -6,0 0,0 0,1 -1,1 -1,0 -2,0 -1,-1 0,-1 1,-2 1,-3 0,-2 -2,-2 -4,-3 -2,-3 -4,-7 -5,-9 -1,-1 -1,-2 0,-3 2,-1 5,1 13,1 2,0 5,1 8,1 1,8 5,16 16,19 6,1 12,6 14,11 -23,0 -27,9 -27,17 0,10 8,9 8,17 0,6 -19,9 -25,10 -5,0 -8,1 -10,4 -3,2 -5,5 -10,9 0,0 2,0 4,0l3 -4c1,-1 2,-3 3,-3 0,1 0,2 -1,3l-3 5c12,1 13,-4 13,-6 0,-1 -3,-2 -2,-4 2,-1 3,0 5,2 1,1 2,2 5,1 0,0 25,-10 28,-11 3,-2 2,-3 0,-4 -2,-2 -2,-4 -2,-7 0,-8 5,-10 13,-10 0,1 -1,3 -1,4 0,12 18,23 23,23 2,0 5,-1 5,6 0,5 2,9 1,15 -1,6 -3,7 -7,9 -3,3 -7,11 -8,12 1,1 3,2 4,-2 2,-4 3,-6 4,-7 -1,4 -2,9 -3,11 5,1 12,-4 12,-7 0,-3 -3,-3 -3,-5 0,-1 2,-2 3,-2 2,0 3,2 3,2 2,-1 4,-3 4,-8 0,-1 -1,-3 -1,-5 1,0 1,0 1,0 1,2 2,3 4,3 2,0 3,-1 5,-2 2,-1 3,-3 3,-4 0,-1 0,-1 0,-2 0,-1 0,-2 0,-2 -1,-1 -2,-2 -4,-3 -2,0 -4,1 -5,2 -2,1 -3,2 -4,4 0,-6 -1,-12 0,-15 0,-3 0,-5 -1,-6 -1,0 -3,2 -5,2 -1,0 -7,-5 -7,-10 0,-5 6,-12 6,-19 0,-2 1,-3 2,-1 1,2 2,6 5,8 -2,9 8,18 16,11 -4,1 -7,-3 -8,-6 0,0 1,0 2,0 0,0 1,0 1,0 3,3 12,3 14,-5 -2,1 -5,3 -7,2 3,-2 5,-6 5,-11 0,-22 -27,-25 -27,-45 0,-8 6,-13 11,-13 2,0 3,1 4,2 -2,2 -2,4 -2,8 0,16 27,15 27,22 3,-11 -17,-8 -17,-23zm-70 -62c1,-2 0,-6 4,-6 3,0 5,2 7,3 -4,1 -8,2 -11,3zm-24 49c0,2 0,3 -1,4 -1,0 -1,0 -2,0 -1,0 -3,-1 -3,-4 0,0 0,0 0,0 0,-1 1,-2 2,-3 0,0 1,-1 1,-1 1,0 2,1 2,1 1,1 1,2 1,3zm77 113c1,-1 2,-3 3,-3 1,-1 3,-2 4,-1 0,0 1,0 2,1l0 0c0,1 0,2 0,2 0,1 -1,3 -2,3 -3,2 -5,2 -6,0 -1,-1 -1,-1 -1,-2zm-16 -75c0,0 0,-1 1,-2 1,0 2,-1 2,0 1,0 3,0 4,1 1,1 1,3 1,4 0,1 0,2 0,2l0 0c-1,1 -2,1 -3,1 -1,0 -2,-1 -3,-2 -1,-1 -2,-2 -2,-4zm-44 -50c1,-4 3,-12 3,-12l5 2c-2,0 -3,1 -4,3 1,0 2,0 3,-1l-1 5c-1,-1 -2,-3 -3,-3 -1,3 1,5 3,5 2,2 4,2 5,1 0,-2 -1,-4 -3,-3 -1,-2 1,-3 2,-3 1,0 2,1 2,2 0,-3 2,-6 5,-7 1,4 0,6 -2,8 1,0 3,0 3,1 1,1 1,3 -1,4 -1,-3 -3,-3 -4,-1 -1,1 0,2 3,4 2,1 5,0 6,-2 -1,0 -2,0 -4,1l3 -5c0,0 0,2 2,3 0,-1 1,-3 0,-5l6 3c-2,0 -4,2 -5,3 2,0 3,0 4,0l-3 5c0,-2 -1,-3 -1,-4 -2,2 -1,5 1,6 3,2 4,2 5,1 1,-2 0,-4 -3,-3 0,-2 2,-3 3,-3 1,0 2,1 2,2 1,-3 3,-5 6,-6 1,4 -1,6 -4,8 2,-1 3,0 3,1 1,1 1,3 -1,4 -1,-3 -3,-3 -4,-2 -1,1 0,3 3,4 1,1 3,2 6,0 -1,-1 -3,-1 -4,-1l3 -4c0,2 1,3 2,4 0,-2 0,-4 0,-5l4 3c0,0 -6,6 -9,9l-37 -22zm36 92c-1,2 -4,3 -5,2 -2,-1 -2,-4 -1,-6 2,-2 4,-3 6,-2 2,2 2,4 0,6zm11 -17c-1,3 -4,3 -6,2 -1,-1 -1,-4 0,-6 2,-2 4,-3 6,-1 1,1 2,3 0,5z"/>
 </g>
</svg>
